<svg width="28" height="29" viewBox="0 0 28 29" fill="none" xmlns="http://www.w3.org/2000/svg">
<path d="M27.918 14.3945C27.8633 14.3581 27.8268 14.3216 27.8086 14.2852C27.8086 14.2305 27.7812 14.1849 27.7266 14.1484L14.6016 1.02344C14.4375 0.841146 14.237 0.75 14 0.75C13.763 0.75 13.5625 0.841146 13.3984 1.02344C13.2161 1.1875 13.125 1.38802 13.125 1.625C13.125 1.86198 13.2161 2.0625 13.3984 2.22656L25.0195 13.875H0.875C0.619792 13.875 0.410156 13.957 0.246094 14.1211C0.0820312 14.2852 0 14.4948 0 14.75C0 15.0052 0.0820312 15.2148 0.246094 15.3789C0.410156 15.543 0.619792 15.625 0.875 15.625H25.0195L13.3984 27.2734C13.2161 27.4375 13.125 27.638 13.125 27.875C13.125 28.112 13.2161 28.3125 13.3984 28.4766C13.4714 28.5677 13.5625 28.6315 13.6719 28.668C13.7995 28.7227 13.9089 28.75 14 28.75C14.0911 28.75 14.1914 28.7227 14.3008 28.668C14.4284 28.6315 14.5286 28.5677 14.6016 28.4766L27.7266 15.3516C27.7812 15.3151 27.8268 15.2786 27.8633 15.2422C27.8997 15.1875 27.918 15.1419 27.918 15.1055C27.9544 14.9779 27.9727 14.8594 27.9727 14.75C27.9727 14.6406 27.9544 14.5221 27.918 14.3945Z" fill="white"/>
</svg>
