<?xml version="1.0" encoding="UTF-8" standalone="no"?>
<svg
   xmlns:dc="http://purl.org/dc/elements/1.1/"
   xmlns:cc="http://creativecommons.org/ns#"
   xmlns:rdf="http://www.w3.org/1999/02/22-rdf-syntax-ns#"
   xmlns:svg="http://www.w3.org/2000/svg"
   xmlns="http://www.w3.org/2000/svg"
   xmlns:sodipodi="http://sodipodi.sourceforge.net/DTD/sodipodi-0.dtd"
   xmlns:inkscape="http://www.inkscape.org/namespaces/inkscape"
   inkscape:version="1.0 (4035a4fb49, 2020-05-01)"
   sodipodi:docname="arrow_left.svg"
   id="svg4"
   version="1.1"
   fill="none"
   viewBox="0 0 28 29"
   height="29"
   width="28">
  <metadata
     id="metadata10">
    <rdf:RDF>
      <cc:Work
         rdf:about="">
        <dc:format>image/svg+xml</dc:format>
        <dc:type
           rdf:resource="http://purl.org/dc/dcmitype/StillImage" />
        <dc:title></dc:title>
      </cc:Work>
    </rdf:RDF>
  </metadata>
  <defs
     id="defs8" />
  <sodipodi:namedview
     inkscape:current-layer="svg4"
     inkscape:window-maximized="0"
     inkscape:window-y="102"
     inkscape:window-x="367"
     inkscape:cy="29.36376"
     inkscape:cx="19.686359"
     inkscape:zoom="10.118942"
     showgrid="false"
     id="namedview6"
     inkscape:window-height="881"
     inkscape:window-width="1267"
     inkscape:pageshadow="2"
     inkscape:pageopacity="0"
     guidetolerance="10"
     gridtolerance="10"
     objecttolerance="10"
     borderopacity="1"
     bordercolor="#666666"
     pagecolor="#ffffff" />
  <path
     id="path2"
     fill="white"
     d="m 0.05422652,15.086433 c 0.05465013,0.03648 0.09110014,0.07303 0.10925031,0.10945 -7.486e-5,0.0547 0.0272627,0.100337 0.0818127,0.136912 L 13.352315,28.475705 c 0.16385,0.182519 0.364225,0.273939 0.601225,0.274263 0.237,3.25e-4 0.437624,-0.09055 0.601974,-0.272616 0.182524,-0.163811 0.273898,-0.364206 0.274223,-0.601185 3.24e-4,-0.23698 -0.0905,-0.437625 -0.272577,-0.601934 L 2.9520128,15.609899 27.09649,15.642943 c 0.255208,3.49e-4 0.464956,-0.08136 0.629242,-0.245239 0.164288,-0.163875 0.246606,-0.373363 0.246955,-0.628563 3.49e-4,-0.255199 -0.0814,-0.464911 -0.245233,-0.629236 -0.163837,-0.164324 -0.373361,-0.246611 -0.628569,-0.24696 L 2.9544078,13.859901 14.591439,2.2274164 C 14.773963,2.063566 14.865337,1.8631909 14.865662,1.6261911 14.865986,1.3891913 14.775161,1.1885669 14.593085,1.0242175 14.52021,0.93301769 14.429198,0.86909307 14.319848,0.83244339 14.192323,0.77756881 14.08296,0.75011911 13.99186,0.74999443 c -0.0911,-1.2468e-4 -0.191437,0.027038 -0.300912,0.0815883 -0.12765,0.0363253 -0.227937,0.0999881 -0.301061,0.19098812 L 0.24693621,14.129596 c -0.0546499,0.03643 -0.10029981,0.07286 -0.1368496,0.109213 C 0.07361179,14.293459 0.0552494,14.339034 0.05519958,14.375434 0.01862498,14.502984 1.6282141e-4,14.621459 1.309837e-5,14.730859 -1.3662467e-4,14.840258 0.01800118,14.958783 0.05422652,15.086433 Z" />
</svg>
