<?xml version="1.0" encoding="UTF-8"?>
<svg width="150" height="84" version="1.1" viewBox="0 0 39.687 22.225" xmlns="http://www.w3.org/2000/svg" xmlns:cc="http://creativecommons.org/ns#" xmlns:dc="http://purl.org/dc/elements/1.1/" xmlns:rdf="http://www.w3.org/1999/02/22-rdf-syntax-ns#" xmlns:xlink="http://www.w3.org/1999/xlink">
 <defs>
  <linearGradient id="linearGradient1896" x1="18.289" x2="25.102" y1="9.0289" y2="9.0289" gradientUnits="userSpaceOnUse">
   <stop style="stop-color:#72be44" offset="0"/>
   <stop style="stop-color:#e2e41a" offset="1"/>
  </linearGradient>
  <linearGradient id="linearGradient1908" x1="24.392" x2="13.868" y1="4.5135" y2="4.5603" gradientUnits="userSpaceOnUse">
   <stop style="stop-color:#72be44" offset="0"/>
   <stop style="stop-color:#e2e41a" offset="1"/>
  </linearGradient>
 </defs>
 <metadata>
  <rdf:RDF>
   <cc:Work rdf:about="">
    <dc:format>image/svg+xml</dc:format>
    <dc:type rdf:resource="http://purl.org/dc/dcmitype/StillImage"/>
    <dc:title/>
   </cc:Work>
  </rdf:RDF>
 </metadata>
 <path d="m18.307 13.281c0.0012-0.59619 0.13105-4.5309 0.15061-4.5626 0.01066-0.017305 0.46675-0.38269 1.0135-0.81197 0.54678-0.42928 2.0245-1.5898 3.2839-2.579 1.2594-0.98917 2.2938-1.7936 2.2989-1.7876 0.0091 0.010904-6.6742 9.9905-6.722 10.037-0.01402 0.01372-0.02522-0.11951-0.02487-0.29608z" style="fill:url(#linearGradient1896);stroke-width:.034045"/>
 <path d="m15.841 6.7938-1.9613-0.8325 5.2597-1.7664c2.8928-0.97151 5.2658-1.7602 5.2733-1.7527 0.01925 0.019386-6.4979 5.1584-6.5596 5.1725-0.02796 0.00639-0.93342-0.363-2.0121-0.82088z" style="fill:url(#linearGradient1908);stroke-width:.034022"/>
 <g transform="matrix(.26458 0 0 .26458 11.376 -.065758)" style="fill:none">
  <path d="m63.701 3.544c0.0424-0.19675 0.0847-0.39349 0.0847-0.59024v-0.09837c0-0.24594 0-0.44268-0.0847-0.68861 0-0.04919-0.0423-0.09838-0.0423-0.14757-0.0423-0.24593-0.127-0.44268-0.2539-0.63942-0.127-0.19675-0.254-0.34431-0.4233-0.49187-0.0423-0.049186-0.0846-0.049187-0.0846-0.098373-0.1693-0.14756-0.3386-0.24593-0.5079-0.3443-0.0424 0-0.0424-2e-6 -0.0847-0.049188-0.1693-0.049187-0.3386-0.098373-0.5502-0.14756h-0.0847c-0.2116 0-0.3809 1e-6 -0.5925 0.098374h-0.0423l-59.044 19.773c-0.88883 0.2952-1.5237 1.2297-1.566 2.3118s0.55023 2.0659 1.3967 2.4102l20.612 8.706-0.7618 25.479c-0.0424 1.0821 0.5502 2.0658 1.3967 2.4101 0.2539 0.0984 0.5079 0.1476 0.7195 0.1476 0.6349 0 1.2698-0.3443 1.693-0.9346l37.881-56.319s0-0.04919 0.0424-0.04919c0.1269-0.19675 0.2116-0.39349 0.2962-0.59024v-0.14756zm-54.218 19.232 39.786-13.28-24.93 19.527zm17.269 10.428 24.929-19.527-25.48 37.923z" fill="#002a00"/>
 </g>
 <g transform="matrix(.26458 0 0 .26458 0 17.463)" style="fill:none">
  <path d="m0 14.964 2.2432-3.1479c1.439 1.328 3.0474 2.0166 4.7404 2.0166 1.1004 0 1.6507-0.4427 1.6507-1.1805v-0.0491c0-0.6887-0.46558-1.0822-2.4548-1.6232-3.0897-0.8362-5.5023-1.8199-5.5023-5.3122v-0.04918c0-3.148 2.1586-5.4105 5.6292-5.4105 2.4972 0 4.4018 0.78698 6.0102 2.2626l-2.0316 3.2955c-1.3121-1.0821-2.7935-1.6724-4.0632-1.6724-0.97347 0-1.439 0.49187-1.439 1.0821v0.04919c0 0.78699 0.5079 1.1313 2.5395 1.6232 3.3437 0.83618 5.4176 2.115 5.4176 5.263v0.0492c0 3.443-2.3702 5.5089-5.8831 5.5089-2.6242 0.1475-5.079-0.8362-6.8567-2.7053z" fill="#002a00"/>
 </g>
 <g transform="matrix(.26458 0 0 .26458 3.705 17.462)" style="fill:none">
  <path d="m0.68677 0.55127h6.2641c3.6823 0 6.0525 2.2134 6.0525 5.9516v0.04919c0 3.9842-2.6242 6.0992-6.2642 6.0992h-1.9893v4.8203h-4.0209v-16.92zm5.9255 8.4109c1.439 0 2.3279-0.88536 2.3279-2.2134v-0.04918c0-1.4756-0.88882-2.2134-2.3279-2.2134h-1.9046v4.476z" fill="#002a00"/>
 </g>
 <g transform="matrix(.26458 0 0 .26458 7.4093 17.462)" style="fill:none">
  <path d="m0.69641 0.55127h6.899c2.2432 0 3.7669 0.68861 4.7404 1.8199 0.8465 0.98373 1.3121 2.2626 1.3121 3.9349v0.04919c0 2.6069-1.1851 4.3284-3.0051 5.2138l3.4707 5.9024h-4.6558l-2.9204-5.1154h-1.7776v5.1154h-4.0209v-16.92zm6.6874 8.165c1.3544 0 2.1586-0.78698 2.1586-2.0166v-0.04919c0-1.328-0.8465-2.0166-2.2009-2.0166h-2.6242v4.0825z" fill="#002a00"/>
 </g>
 <g transform="matrix(.26458 0 0 .26458 11.38 17.462)" style="fill:none">
  <path d="m0.67944 0.55127h5.6292c5.206 0 8.211 3.4923 8.211 8.3617v0.04919c0 4.8695-3.0474 8.5093-8.2957 8.5093h-5.5446zm5.6716 12.789c2.4125 0 4.0209-1.5248 4.0209-4.2792v-0.04919c0-2.7053-1.6084-4.2792-4.0209-4.2792h-1.6507v8.6077z" fill="#002a00"/>
 </g>
 <g transform="matrix(.26458 0 0 .26458 15.349 20.638)" style="fill:none">
  <path d="m0.57788 0.7998h4.1055v4.7219h-4.1055z" fill="#002a00"/>
 </g>
 <g transform="matrix(.26458 0 0 .26458 16.992 17.462)" style="fill:none">
  <path d="m0.67944 0.55127h5.6292c5.206 0 8.211 3.4923 8.211 8.3617v0.04919c0 4.8695-3.0474 8.5093-8.2957 8.5093h-5.5446zm5.6716 12.789c2.4125 0 4.0209-1.5248 4.0209-4.2792v-0.04919c0-2.7053-1.6084-4.2792-4.0209-4.2792h-1.6507v8.6077z" fill="#002a00"/>
 </g>
 <g transform="matrix(.26458 0 0 .26458 21.17 17.462)" style="fill:none">
  <path d="m0.92554 0.55127h4.0632v16.92h-4.0632z" fill="#002a00"/>
 </g>
 <g transform="matrix(.26458 0 0 .26458 23.022 17.463)" style="fill:none">
  <path d="m0.14728 9.0616c0-4.9678 3.3437-8.8536 7.8725-8.8536 2.5819 0 4.3595 0.93454 5.9255 2.4593l-2.3702 3.2955c-1.0581-1.0329-2.0739-1.574-3.5129-1.574-2.1162 0-3.7246 2.0658-3.7246 4.6235v0.04919c0 2.7545 1.6507 4.6727 3.9786 4.6727 0.97347 0 1.7353-0.2459 2.3279-0.6886v-2.0658h-2.8781v-3.4431h6.6873v7.6239c-1.5237 1.4756-3.6822 2.6069-6.3487 2.6069-4.5711 0.0984-7.9571-3.5414-7.9571-8.706z" fill="#002a00"/>
 </g>
 <g transform="matrix(.26458 0 0 .26458 27.208 17.462)" style="fill:none">
  <path d="m0.92554 0.55127h4.0632v16.92h-4.0632z" fill="#002a00"/>
 </g>
 <g transform="matrix(.26458 0 0 .26458 28.844 17.462)" style="fill:none">
  <path d="m5.0238 4.6829h-4.3595v-4.1317h12.782v4.1317h-4.3595v12.838h-4.0209v-12.838z" fill="#002a00"/>
 </g>
 <g transform="matrix(.26458 0 0 .26458 32.02 17.462)" style="fill:none">
  <path d="m6.3985 0.45215h3.8939l6.2218 17.068h-4.3172l-1.0581-3.0496h-5.6293l-1.0581 3.0496h-4.2325zm3.513 10.378-1.6084-4.8203-1.6507 4.8203z" fill="#002a00"/>
 </g>
 <g transform="matrix(.26458 0 0 .26458 36.52 17.462)" style="fill:none">
  <path d="m0.91089 0.55127h4.0209v12.838h7.0683v4.1317h-11.089z" fill="#002a00"/>
 </g>
</svg>
