<?xml version="1.0" encoding="UTF-8"?>
<svg width="32" height="20" version="1.1" viewBox="0 0 8.4667 5.2917" xmlns="http://www.w3.org/2000/svg" xmlns:cc="http://creativecommons.org/ns#" xmlns:dc="http://purl.org/dc/elements/1.1/" xmlns:rdf="http://www.w3.org/1999/02/22-rdf-syntax-ns#">
 <metadata>
  <rdf:RDF>
   <cc:Work rdf:about="">
    <dc:format>image/svg+xml</dc:format>
    <dc:type rdf:resource="http://purl.org/dc/dcmitype/StillImage"/>
    <dc:title/>
   </cc:Work>
  </rdf:RDF>
 </metadata>
 <g fill="#fff">
  <g stroke-width=".26458">
   <rect width="8.4667" height=".52917"/>
   <rect y="2.3812" width="6.6146" height=".52917"/>
   <rect y="4.7625" width="4.2333" height=".52917"/>
  </g>
  <g stroke-width=".049269">
   <path transform="matrix(.26458 0 0 .26458 -1e-5 0)" d="m0.0041199 1.0116v-0.98537h31.975v1.9707h-31.975z"/>
   <path transform="matrix(.26458 0 0 .26458 -1e-5 0)" d="m0.0041199 10.003v-0.96074h24.979v1.9215h-24.979z"/>
   <path transform="matrix(.26458 0 0 .26458 -1e-5 0)" d="m0.0041199 18.995v-0.98537h15.963v1.9707h-15.963z"/>
   <path transform="matrix(.26458 0 0 .26458 -1e-5 0)" d="m0.0041199 10.003v-0.96074h24.979v1.9215h-24.979z"/>
   <path transform="matrix(.26458 0 0 .26458 -1e-5 0)" d="m6.2529 9.0055c3.4504-0.00698 9.0818-0.00698 12.514 7e-7 3.4325 0.00698 0.60943 0.012696-6.2734 0.012695-6.8828-5e-7 -9.6912-0.00571-6.2408-0.012696z"/>
   <path transform="matrix(.26458 0 0 .26458 -1e-5 0)" d="m1.1708 9.0055c0.65524-0.00776 1.7416-0.00776 2.4142-1.68e-5 0.67255 0.00775 0.13644 0.014094-1.1913 0.014103-1.3278 9.2e-6 -1.8781-0.00633-1.2228-0.014086z"/>
  </g>
  <path transform="matrix(.26458 0 0 .26458 -1e-5 0)" d="m3.0151 9.0383c1.6542-0.00121 4.3585-0.00121 6.0096 0 1.651 0.00121 0.29759 0.0022-3.0077 0.0022-3.3053 0-4.6561-9.911e-4 -3.0019-0.0022z" stroke-width=".0087096"/>
  <path transform="matrix(.26458 0 0 .26458 -1e-5 0)" d="m0.0030207 9.0187c0-0.017216 0.0054629-0.017407 0.46814-0.016389 0.25748 5.668e-4 0.45638 0.00369 0.44201 0.00694-0.045361 0.010265 1.4534 0.018222 2.2274 0.011826 0.40843-0.00338 0.72888-0.0087 0.71212-0.011822-0.016766-0.00313 0.22035-0.00545 0.52693-0.00516 0.30658 2.864e-4 0.52018 0.00294 0.47467 0.0059-0.045507 0.00296 1.5487 0.00613 3.5426 0.00704 2.41 0.00111 3.6254 0.00459 3.6254 0.010377 0 0.0058-2.009 0.00871-6.0096 0.00871-6.0038 0-6.0096-1.69e-5 -6.0096-0.017419z" stroke-width=".0087096"/>
 </g>
</svg>
